<?xml version="1.0" encoding="utf-8"?>
<!-- Generator: Adobe Illustrator 24.1.2, SVG Export Plug-In . SVG Version: 6.00 Build 0)  -->
<svg version="1.1" id="Capa_1" xmlns="http://www.w3.org/2000/svg" xmlns:xlink="http://www.w3.org/1999/xlink" x="0px" y="0px"
	 viewBox="0 0 200 150" style="enable-background:new 0 0 200 150;" xml:space="preserve">
<g>
	<path d="M80.2,69.5h39.6c1.1,0,2-0.9,2-2c0-1.1-0.9-2-2-2h-2.1l0-0.2c-1-8.1-7.4-14.5-15.5-15.5l-0.2,0v-4.7c0-1.1-0.9-2-2-2
		s-2,0.9-2,2v4.7l-0.2,0c-8.1,1-14.5,7.4-15.5,15.5l0,0.2h-2.1c-1.1,0-2,0.9-2,2C78.3,68.7,79.1,69.5,80.2,69.5z M86.3,65.3
		c1.1-6.7,6.9-11.6,13.7-11.6c6.8,0,12.6,4.9,13.7,11.6l0,0.3H86.3L86.3,65.3z"/>
	<path d="M122.8,102.9h-2.3V88.3h2.3c1.1,0,2-0.9,2-2s-0.9-2-2-2h-5.1v-7.5h2c1.1,0,2-0.9,2-2c0-1.1-0.9-2-2-2H80.2
		c-1.1,0-2,0.9-2,2c0,1.1,0.9,2,2,2h2v7.5h-5.1c-1.1,0-2,0.9-2,2s0.9,2,2,2h2.3v14.5h-2.3c-1.1,0-2,0.9-2,2c0,1.1,0.9,2,2,2h45.7
		c1.1,0,2-0.9,2-2C124.8,103.7,123.9,102.9,122.8,102.9z M102,76.9h4v7.5h-4V76.9z M88.7,102.9h-5.4V88.3h5.4V102.9z M90.1,84.4h-4
		v-7.5h4V84.4z M98,102.9h-5.4V88.3H98V102.9z M98,84.4h-4v-7.5h4V84.4z M107.3,102.9H102V88.3h5.4V102.9z M109.9,76.9h4v7.5h-4
		V76.9z M116.6,102.9h-5.4V88.3h5.4V102.9z"/>
</g>
</svg>
