<?xml version="1.0" encoding="utf-8"?>
<!-- Generator: Adobe Illustrator 24.1.2, SVG Export Plug-In . SVG Version: 6.00 Build 0)  -->
<svg version="1.1" id="Capa_1" xmlns="http://www.w3.org/2000/svg" xmlns:xlink="http://www.w3.org/1999/xlink" x="0px" y="0px"
	 viewBox="0 0 200 150" style="enable-background:new 0 0 200 150;" xml:space="preserve">
<path d="M125.9,49.2H74.1c-3.1,0-5.6,2.5-5.6,5.6v34.3c0,3.1,2.5,5.6,5.6,5.6h17.9l-0.4,3.9c-0.1,0.6,0.1,1.1,0.5,1.6
	c0.4,0.4,0.9,0.7,1.5,0.7h14.1c0.6,0,1.1-0.2,1.5-0.7c0.4-0.4,0.6-1,0.5-1.6l-0.4-3.9h16.8c3.1,0,5.6-2.5,5.6-5.6V54.8
	C131.6,51.7,129,49.2,125.9,49.2z M106.1,97.5H95l0.4-3.5h10.4L106.1,97.5z M127.6,89.1c0,0.9-0.7,1.6-1.6,1.6H74.1
	c-0.9,0-1.6-0.7-1.6-1.6v-0.8h55.1V89.1z M127.6,84.3H72.4V54.8c0-0.9,0.7-1.6,1.6-1.6h51.9c0.9,0,1.6,0.7,1.6,1.6V84.3z"/>
</svg>
