<?xml version="1.0" encoding="utf-8"?>
<!-- Generator: Adobe Illustrator 24.1.2, SVG Export Plug-In . SVG Version: 6.00 Build 0)  -->
<svg version="1.1" id="Capa_1" xmlns="http://www.w3.org/2000/svg" xmlns:xlink="http://www.w3.org/1999/xlink" x="0px" y="0px"
	 viewBox="0 0 200 150" style="enable-background:new 0 0 200 150;" xml:space="preserve">
<g>
	<path d="M126.2,58.6H111h-0.5v-0.5v-5.9c0-1.3-1-2.3-2.3-2.3H91.9c-1.3,0-2.3,1-2.3,2.3v5.9v0.5H89H73.8c-1,0-1.9,0.8-1.9,1.9v37.7
		c0,1,0.8,1.9,1.9,1.9h52.4c1,0,1.9-0.8,1.9-1.9V60.5C128.1,59.5,127.2,58.6,126.2,58.6z M92.9,58.1v-4.4v-0.5h0.5h13.2h0.5v0.5v4.4
		v0.5h-0.5H93.4h-0.5V58.1z M124.7,71.3v24.9v0.5h-0.5H75.8h-0.5v-0.5V71.3v-0.5h0.5h48.4h0.5V71.3z M124.7,62.5v4.4v0.5h-0.5H75.8
		h-0.5v-0.5v-4.4V62h0.5h48.4h0.5V62.5z"/>
	<polygon points="101.9,76 98.1,76 98.1,81.9 92.2,81.9 92.2,85.7 98.1,85.7 98.1,91.6 101.9,91.6 101.9,85.7 107.8,85.7 
		107.8,81.9 101.9,81.9 	"/>
</g>
</svg>
