<?xml version="1.0" encoding="utf-8"?>
<!-- Generator: Adobe Illustrator 24.1.2, SVG Export Plug-In . SVG Version: 6.00 Build 0)  -->
<svg version="1.1" id="Capa_1" xmlns="http://www.w3.org/2000/svg" xmlns:xlink="http://www.w3.org/1999/xlink" x="0px" y="0px"
	 viewBox="0 0 200 150" style="enable-background:new 0 0 200 150;" xml:space="preserve">
<g>
	<path d="M128.9,64.9l-3-3c-0.5-0.5-1.2-0.8-1.9-0.8s-1.4,0.3-1.9,0.8l-0.4,0.4c-3.9-2.6-8.5-4-13.3-4c0,0,0,0,0,0
		c-3,0-5.8,0.5-8.5,1.6l5.2-5.2c0.7,0.3,1.4,0.5,2.1,0.5c1.3,0,2.6-0.5,3.5-1.5c0.9-0.9,1.5-2.2,1.5-3.5c0-1.3-0.5-2.6-1.5-3.5
		s-2.2-1.5-3.5-1.5c-1.3,0-2.6,0.5-3.5,1.5c-0.9,0.9-1.5,2.2-1.5,3.5c0,0.7,0.2,1.5,0.5,2.1l-9.4,9.4l-0.3-0.3
		c-0.5-0.5-1.2-0.8-1.9-0.8s-1.4,0.3-1.9,0.8l-3,3c-0.5,0.5-0.8,1.2-0.8,1.9c0,0.7,0.3,1.4,0.8,1.9l0.3,0.3l-9.4,9.4
		c-0.7-0.3-1.4-0.5-2.1-0.5c-1.3,0-2.6,0.5-3.5,1.5c-1.9,1.9-1.9,5.1,0,7c0.9,0.9,2.2,1.5,3.5,1.5c1.3,0,2.6-0.5,3.5-1.5
		c1.5-1.5,1.8-3.8,1-5.6l5.2-5.2c-1,2.7-1.6,5.6-1.6,8.6c0,4.8,1.4,9.3,4,13.3l-0.5,0.5c-1,1-1,2.7,0,3.8l3,3
		c0.5,0.5,1.2,0.8,1.9,0.8s1.4-0.3,1.9-0.8l3-3c1-1,1-2.7,0-3.8l-3-3c-0.5-0.5-1.2-0.8-1.9-0.8s-1.4,0.3-1.9,0.8l-0.1,0.1
		c-4.3-6.9-4.1-15.9,0.6-22.7c0.3,0.1,0.6,0.2,1,0.2c0.7,0,1.4-0.3,1.9-0.8l3-3c0.8-0.8,1-1.9,0.6-2.8c6.8-4.7,15.8-4.9,22.7-0.6
		l-0.2,0.2c-1,1-1,2.7,0,3.8l3,3c0.5,0.5,1.2,0.8,1.9,0.8s1.4-0.3,1.9-0.8l3-3C130,67.6,130,65.9,128.9,64.9z M93.8,99.2l-2.1,2.1
		l-2.1-2.1l2.1-2.1L93.8,99.2z M106.1,49c0.3-0.3,0.7-0.5,1.2-0.5s0.9,0.2,1.2,0.5c0.3,0.3,0.5,0.7,0.5,1.2s-0.2,0.9-0.5,1.2
		s-0.7,0.5-1.2,0.5s-0.9-0.2-1.2-0.5l0,0l0,0c-0.3-0.3-0.5-0.7-0.5-1.2S105.8,49.3,106.1,49z M76.4,83.4c-0.3,0.3-0.7,0.5-1.2,0.5
		s-0.9-0.2-1.2-0.5c-0.6-0.6-0.6-1.7,0-2.3c0.3-0.3,0.7-0.5,1.2-0.5s0.9,0.2,1.2,0.5C77,81.7,77,82.8,76.4,83.4z M91.2,68.3
		l-2.1-2.1l2.1-2.1l1,1l0,0l0,0l1,1L91.2,68.3z M124.1,68.8l-2.1-2.1l2.1-2.1l2.1,2.1L124.1,68.8z"/>
</g>
</svg>
